<svg width="104" height="26" viewBox="0 0 104 26" fill="none" xmlns="http://www.w3.org/2000/svg">
<path d="M0 25.654V0.346008H6.56863V20.6863H17.8746V25.654H0Z" fill="black"/>
<path d="M45.8676 13C45.8676 15.7845 45.2926 18.1448 44.1425 20.0808C42.9925 22.0168 41.4355 23.4873 39.4715 24.4924C37.5164 25.4975 35.3224 26 32.8896 26C30.4479 26 28.2495 25.4933 26.2944 24.48C24.3393 23.4667 22.7867 21.9962 21.6367 20.0684C20.4955 18.1324 19.9248 15.7763 19.9248 13C19.9248 10.2155 20.4955 7.8552 21.6367 5.9192C22.7867 3.98321 24.3393 2.51268 26.2944 1.5076C28.2495 0.502535 30.4479 0 32.8896 0C35.3224 0 37.5164 0.502535 39.4715 1.5076C41.4355 2.51268 42.9925 3.98321 44.1425 5.9192C45.2926 7.8552 45.8676 10.2155 45.8676 13ZM39.153 13C39.153 11.3523 38.9009 9.96008 38.3966 8.82319C37.9012 7.68631 37.1846 6.82541 36.2469 6.24049C35.318 5.65558 34.1989 5.36312 32.8896 5.36312C31.5891 5.36312 30.47 5.65558 29.5323 6.24049C28.5946 6.82541 27.8736 7.68631 27.3693 8.82319C26.8739 9.96008 26.6262 11.3523 26.6262 13C26.6262 14.6477 26.8739 16.0399 27.3693 17.1768C27.8736 18.3137 28.5946 19.1746 29.5323 19.7595C30.47 20.3444 31.5891 20.6369 32.8896 20.6369C34.1989 20.6369 35.318 20.3444 36.2469 19.7595C37.1846 19.1746 37.9012 18.3137 38.3966 17.1768C38.9009 16.0399 39.153 14.6477 39.153 13Z" fill="black"/>
<path d="M67.5375 8.61312C67.3871 8.09411 67.1659 7.63688 66.874 7.24145C66.582 6.83777 66.2237 6.49588 65.7991 6.21578C65.3745 5.93568 64.8879 5.7256 64.3394 5.58555C63.7909 5.43726 63.1893 5.36312 62.5347 5.36312C61.2165 5.36312 60.0753 5.6597 59.111 6.25285C58.1556 6.84601 57.4169 7.71103 56.895 8.84791C56.373 9.97655 56.112 11.3482 56.112 12.9629C56.112 14.5859 56.3642 15.9699 56.8684 17.115C57.3727 18.2601 58.1025 19.1334 59.058 19.7348C60.0134 20.3362 61.1723 20.6369 62.5347 20.6369C63.7378 20.6369 64.7552 20.4556 65.5868 20.0932C66.4272 19.7224 67.0642 19.1993 67.4977 18.5238C67.9311 17.8482 68.1479 17.0532 68.1479 16.1388L69.3687 16.2747H62.7603V11.8137H74.4777V15.1625C74.4777 17.4281 73.9601 19.3682 72.9251 20.9829C71.8989 22.5976 70.4834 23.8375 68.6787 24.7025C66.8828 25.5675 64.8171 26 62.4816 26C59.8895 26 57.6115 25.4769 55.6476 24.4306C53.6836 23.3843 52.1532 21.8932 51.0562 19.9572C49.9592 18.013 49.4107 15.7063 49.4107 13.0371C49.4107 10.961 49.7424 9.11977 50.4059 7.51331C51.0694 5.89861 51.9939 4.53105 53.1794 3.41065C54.3737 2.29024 55.7537 1.4417 57.3196 0.865018C58.8943 0.288339 60.5884 0 62.402 0C63.9767 0 65.4408 0.210076 66.7943 0.630229C68.1567 1.05038 69.3599 1.64354 70.4038 2.4097C71.4565 3.17586 72.3102 4.08619 72.9649 5.14069C73.6195 6.19518 74.0265 7.35266 74.1857 8.61312H67.5375Z" fill="black"/>
<path d="M104 13C104 15.7845 103.425 18.1448 102.275 20.0808C101.125 22.0168 99.5678 23.4873 97.6039 24.4924C95.6488 25.4975 93.4548 26 91.022 26C88.5803 26 86.3819 25.4933 84.4268 24.48C82.4717 23.4667 80.9191 21.9962 79.7691 20.0684C78.6278 18.1324 78.0572 15.7763 78.0572 13C78.0572 10.2155 78.6278 7.8552 79.7691 5.9192C80.9191 3.98321 82.4717 2.51268 84.4268 1.5076C86.3819 0.502535 88.5803 0 91.022 0C93.4548 0 95.6488 0.502535 97.6039 1.5076C99.5678 2.51268 101.125 3.98321 102.275 5.9192C103.425 7.8552 104 10.2155 104 13ZM97.2854 13C97.2854 11.3523 97.0333 9.96008 96.529 8.82319C96.0336 7.68631 95.317 6.82541 94.3793 6.24049C93.4504 5.65558 92.3313 5.36312 91.022 5.36312C89.7215 5.36312 88.6024 5.65558 87.6647 6.24049C86.7269 6.82541 86.0059 7.68631 85.5017 8.82319C85.0063 9.96008 84.7586 11.3523 84.7586 13C84.7586 14.6477 85.0063 16.0399 85.5017 17.1768C86.0059 18.3137 86.7269 19.1746 87.6647 19.7595C88.6024 20.3444 89.7215 20.6369 91.022 20.6369C92.3313 20.6369 93.4504 20.3444 94.3793 19.7595C95.317 19.1746 96.0336 18.3137 96.529 17.1768C97.0333 16.0399 97.2854 14.6477 97.2854 13Z" fill="black"/>
</svg>
