<svg width="24" height="22" viewBox="0 0 24 22" fill="none" xmlns="http://www.w3.org/2000/svg">
<path d="M7.83348 0.645291L7.85411 0.644822L7.85598 0.667791L7.82973 0.668728L7.83348 0.645291Z" fill="#0BA25E"/>
<path d="M7.75324 0.799037C7.77152 0.772787 7.80715 0.720287 7.82543 0.694037L7.85824 0.688881C7.88262 0.986068 7.9698 1.27247 8.03543 1.56169C8.31762 2.81841 8.60262 4.07419 8.89934 5.32716C9.09387 6.18638 9.3109 7.04138 9.48902 7.90388C9.64371 8.43779 9.72668 8.98857 9.87621 9.52341C9.97277 10.0222 10.1242 10.5087 10.2053 11.0103C10.1725 11.0651 10.1396 11.1204 10.1064 11.1753C10.0984 11.1879 10.0815 11.2142 10.0736 11.2273L10.0614 11.2484C10.0595 11.2522 10.0553 11.2601 10.0529 11.2639C10.0346 11.2976 9.99808 11.3647 9.9798 11.3979C9.97652 11.404 9.96949 11.4162 9.96574 11.4223L9.93246 11.4814C9.92824 11.4884 9.92027 11.502 9.91652 11.509L9.87762 11.577C9.87574 11.5808 9.87152 11.5883 9.86918 11.592L9.8209 11.6764C9.81668 11.6834 9.80824 11.6984 9.80402 11.7059C9.79933 11.7139 9.78996 11.7294 9.78527 11.7373L9.73793 11.8189C9.73418 11.825 9.72668 11.8381 9.72293 11.8442L9.69387 11.8934C9.68918 11.9018 9.67887 11.9192 9.67418 11.9276C9.65543 11.96 9.6184 12.0247 9.59965 12.0575C9.59637 12.0631 9.58934 12.0748 9.58605 12.0809L9.55652 12.1301C9.55184 12.139 9.54152 12.1559 9.53637 12.1648C9.51902 12.1953 9.4834 12.2558 9.46605 12.2862C9.46183 12.2933 9.45387 12.3078 9.44965 12.3148L9.41449 12.3781C9.41121 12.3837 9.40465 12.3954 9.40137 12.4011L9.36527 12.4643C9.36152 12.4709 9.35402 12.484 9.35027 12.4906C9.33152 12.5215 9.29496 12.5839 9.27668 12.6153C9.27246 12.6223 9.26402 12.6368 9.2598 12.6443L9.22652 12.7043C9.22324 12.71 9.21715 12.7208 9.21434 12.7264L9.1759 12.7929C9.17262 12.799 9.16559 12.8108 9.1623 12.8164C9.14262 12.8501 9.10371 12.9172 9.08402 12.9509C9.08074 12.957 9.07324 12.9692 9.06949 12.9753L9.04137 13.0217C9.03668 13.0301 9.02684 13.0465 9.02215 13.055C9.00434 13.0859 8.96918 13.1473 8.95137 13.1783C8.94855 13.1834 8.94199 13.1947 8.93918 13.1998L8.90074 13.2683C8.89793 13.2734 8.8923 13.2833 8.88949 13.2884L8.85012 13.3573C8.84684 13.3625 8.84027 13.3737 8.83699 13.3789C8.81871 13.4098 8.78168 13.4708 8.7634 13.5017C8.75824 13.5097 8.74887 13.5265 8.74371 13.535L8.71605 13.5865C8.7123 13.5931 8.70527 13.6062 8.70199 13.6123L8.65371 13.6958C8.64996 13.7028 8.64152 13.7168 8.63777 13.7239C8.63355 13.7304 8.62605 13.744 8.6223 13.7506C8.54309 13.8842 8.47137 14.022 8.38371 14.1504C7.88449 14.9647 7.42512 15.8042 6.94183 16.6283C6.15715 17.9862 5.3734 19.3442 4.58871 20.7022C4.47105 20.9136 4.33699 21.1161 4.23574 21.3368C4.23059 21.3443 4.22027 21.3594 4.21512 21.3668C4.02715 21.0959 3.88184 20.7969 3.7098 20.5156C2.92512 19.1567 2.13996 17.7983 1.35574 16.4389C0.919804 15.6743 0.465585 14.9192 0.0413666 14.1476C1.72137 11.2484 3.39387 8.34404 5.07059 5.44294C5.07199 5.44013 5.07527 5.43497 5.07668 5.43216L5.12262 5.35341C5.12449 5.35013 5.12824 5.34357 5.13059 5.34029L5.17699 5.26107C5.18121 5.25404 5.18965 5.23904 5.19434 5.23201C5.19902 5.22357 5.2084 5.20716 5.21309 5.19873L5.25949 5.11622C5.26277 5.1106 5.26934 5.09935 5.27262 5.09372L5.3073 5.03841C5.3134 5.02951 5.32559 5.01122 5.33168 5.00185C5.34855 4.97654 5.38277 4.92544 5.40012 4.90013C5.40199 4.89169 5.40527 4.87529 5.40715 4.86732L5.44793 4.78904C5.4498 4.78576 5.45355 4.77919 5.45543 4.77591L5.5023 4.69716C5.50699 4.68966 5.51637 4.67373 5.52105 4.66576C5.52621 4.65685 5.53652 4.63857 5.54215 4.62919L5.58152 4.56029C5.58574 4.55279 5.59418 4.53826 5.5984 4.53122L5.63121 4.47357C5.63496 4.46747 5.64246 4.45435 5.64621 4.44779C5.66449 4.41638 5.70105 4.35357 5.7198 4.32216C5.72355 4.3156 5.73105 4.30247 5.7348 4.29591L5.76902 4.23357C5.77184 4.22888 5.77746 4.21857 5.78027 4.21388L5.82527 4.13513C5.8309 4.12576 5.84262 4.10654 5.84871 4.09716L5.87918 4.05122C5.88574 4.04185 5.8984 4.02357 5.90496 4.01466C5.91059 4.00529 5.9223 3.98654 5.9284 3.97716L5.95371 3.92841C5.96215 3.91013 5.97949 3.87357 5.98793 3.85529L6.01371 3.81919C6.0184 3.81263 6.0273 3.79997 6.03199 3.79341C6.04934 3.77888 6.08449 3.74888 6.10184 3.73388L6.09855 3.67904C6.10137 3.67247 6.10793 3.65935 6.11121 3.65279L6.15105 3.57357C6.15434 3.56794 6.1609 3.55622 6.16418 3.5506L6.19934 3.49341C6.2059 3.48404 6.21855 3.46529 6.22512 3.45591C6.24105 3.42966 6.2734 3.3781 6.28934 3.35232C6.29402 3.34294 6.30246 3.32466 6.30715 3.31529L6.33199 3.26138C6.33949 3.24732 6.35543 3.21872 6.3634 3.20419L6.39434 3.16013C6.4009 3.15122 6.41402 3.13341 6.42059 3.12451C6.42621 3.11513 6.43793 3.09638 6.44355 3.08701L6.46652 3.03872C6.47168 3.02794 6.48246 3.00591 6.48762 2.99513L6.52793 2.91732C6.53402 2.90794 6.54574 2.88826 6.55137 2.87841L6.5823 2.83247C6.58887 2.8231 6.60199 2.80529 6.60855 2.79591C6.61465 2.78654 6.62637 2.76732 6.63199 2.75794L6.6559 2.70919C6.66293 2.6956 6.67652 2.66888 6.68309 2.65529L6.71496 2.60279C6.72058 2.59388 6.73184 2.57607 6.73793 2.56716C6.7548 2.54091 6.78902 2.48841 6.80637 2.46263C6.80824 2.45466 6.81246 2.43872 6.81433 2.43076L6.85512 2.35294C6.85652 2.34966 6.86027 2.34357 6.86215 2.34029L6.90902 2.26013C6.91371 2.25216 6.92262 2.23669 6.9273 2.22872C6.93199 2.22122 6.9409 2.20529 6.94559 2.19779L6.99246 2.11576C6.99434 2.11247 6.99809 2.10591 6.99996 2.10216L7.04402 2.02576C7.04637 2.02247 7.05058 2.01544 7.05246 2.01169L7.0998 1.93201C7.10402 1.92451 7.11246 1.91044 7.11668 1.90294C7.12137 1.89497 7.13074 1.87857 7.13543 1.87013L7.18043 1.79091C7.18324 1.78576 7.18887 1.77591 7.19168 1.77122L7.22965 1.70982C7.23574 1.70091 7.24793 1.68263 7.25355 1.67372C7.2709 1.64794 7.30465 1.59638 7.32199 1.5706C7.3234 1.56263 7.32715 1.54669 7.32902 1.53872L7.36887 1.46232C7.37215 1.45669 7.37918 1.44497 7.38246 1.43888L7.41809 1.3831C7.42465 1.37419 7.43683 1.35591 7.4434 1.34654C7.4598 1.32029 7.49262 1.26826 7.50902 1.24201C7.51137 1.23451 7.51559 1.21951 7.51793 1.21201L7.55918 1.13466C7.56105 1.13091 7.5648 1.12435 7.56668 1.1206L7.61449 1.03997C7.61824 1.03294 7.62668 1.01888 7.6309 1.01185C7.63512 1.00388 7.64355 0.988881 7.64777 0.981381L7.69465 0.897944C7.69699 0.894662 7.70074 0.887631 7.70262 0.88435L7.74715 0.808881C7.74855 0.806537 7.75183 0.801381 7.75324 0.799037Z" fill="#0BA25E"/>
<path d="M7.85411 0.644822C9.37661 0.637791 10.8996 0.643881 12.4225 0.641537C13.6825 0.646225 14.9435 0.631693 16.203 0.648568C16.2278 0.696381 16.2532 0.743725 16.2799 0.791068C16.2836 0.797162 16.2907 0.810287 16.2944 0.81685C16.4163 1.02919 16.54 1.2406 16.6605 1.45341C16.6629 1.45716 16.6666 1.46419 16.6689 1.46747C16.9024 1.86826 17.1349 2.26951 17.3641 2.67263C17.366 2.67591 17.3702 2.68247 17.3721 2.68622C17.4138 2.75794 17.4569 2.82966 17.4996 2.90185C17.5033 2.90794 17.5103 2.9206 17.5141 2.92716C17.5727 3.03029 17.6318 3.13294 17.6913 3.2356C17.6936 3.23888 17.6974 3.24544 17.6993 3.24919C17.7588 3.35138 17.8174 3.45451 17.8764 3.55763C17.8802 3.56372 17.8872 3.57591 17.891 3.58201C17.9505 3.68232 18.0082 3.78357 18.0653 3.88482C18.0691 3.89091 18.0761 3.90357 18.0799 3.90966C18.6396 4.87622 19.1979 5.84326 19.7557 6.81122C19.6919 7.09201 19.8461 7.37138 19.7603 7.65357C19.7083 8.42466 19.4172 9.17513 18.9372 9.78076C18.7811 9.94998 18.9325 10.1848 18.9157 10.3854C18.7474 10.5893 18.5308 10.7417 18.3264 10.9062C18.3269 11.06 18.3274 11.2137 18.3203 11.3679C18.138 11.4884 17.9289 11.5583 17.7438 11.6745C17.7241 11.7369 17.7039 11.7997 17.6847 11.8629C17.5361 11.9333 17.3772 11.9787 17.2286 12.05C16.6404 11.8812 16.0582 11.6933 15.4713 11.5193C14.9252 11.3389 14.366 11.1973 13.8255 10.9986L13.7946 10.9433C13.7918 10.939 13.7871 10.9306 13.7847 10.9264L13.7402 10.8509C13.7355 10.8429 13.7261 10.827 13.7214 10.819C13.7172 10.812 13.7097 10.7984 13.7055 10.7914C13.6722 10.7323 13.6418 10.6719 13.6146 10.61L13.6118 10.6039L13.6085 10.5992C13.5878 10.5664 13.5461 10.5003 13.525 10.4675C13.5227 10.4637 13.518 10.4562 13.5157 10.452L13.5021 10.4304C13.4941 10.4169 13.4777 10.3901 13.4697 10.3765C13.4496 10.3423 13.4088 10.2739 13.3886 10.2397C13.3835 10.2312 13.3736 10.2139 13.3685 10.2054L13.3399 10.1567C13.3361 10.1501 13.3286 10.1375 13.3249 10.1309L13.2794 10.0526C13.2775 10.0493 13.2733 10.0428 13.2714 10.039L13.2236 9.95701C13.2194 9.94951 13.211 9.93451 13.2068 9.92747C13.2021 9.91904 13.1922 9.90169 13.1875 9.89326L13.1486 9.82482C13.1439 9.81685 13.1346 9.79997 13.1299 9.79201L13.0999 9.73904C13.0957 9.73201 13.0877 9.71794 13.0835 9.71091C13.0652 9.67716 13.0282 9.61013 13.0094 9.57638C13.0075 9.57263 13.0028 9.56466 13.001 9.56091L12.9883 9.53888C12.9794 9.52576 12.9621 9.49951 12.9532 9.48638C12.9068 9.40857 12.8632 9.32888 12.8214 9.24872C12.8191 9.24498 12.8149 9.23701 12.813 9.23326L12.8008 9.21169C12.7919 9.19904 12.7741 9.17373 12.7652 9.16154C12.7446 9.12451 12.7033 9.05044 12.6827 9.01341C12.6803 9.00966 12.6757 9.00169 12.6738 8.99747L12.6611 8.97497C12.6518 8.95951 12.6335 8.92904 12.6241 8.91357L12.5838 8.8456C12.58 8.83904 12.5721 8.82591 12.5678 8.81888C12.55 8.78794 12.5139 8.7256 12.4957 8.69466C12.4914 8.68763 12.4835 8.6731 12.4793 8.6656C12.4474 8.61263 12.4169 8.55919 12.3869 8.50576C12.3846 8.50154 12.3794 8.4931 12.3771 8.48888L12.3325 8.41248C12.3279 8.40497 12.3189 8.38997 12.3147 8.38201C12.3105 8.37497 12.3025 8.36091 12.2983 8.35388L12.251 8.27138C12.2486 8.26763 12.2444 8.25966 12.2421 8.25591L12.2036 8.18701C12.2003 8.18138 12.1943 8.1706 12.191 8.16498C12.1732 8.13357 12.1371 8.07123 12.1193 8.03982C12.1155 8.03326 12.108 8.0206 12.1043 8.01451C12.0752 7.96622 12.0461 7.91748 12.018 7.86919C10.7182 5.61357 9.41644 3.35935 8.11379 1.10513C8.03223 0.964506 7.95809 0.818256 7.85824 0.688881L7.85598 0.667791L7.85411 0.644822Z" fill="#FCCD48"/>
<path d="M7.82973 0.668728L7.85598 0.667791L7.85824 0.688881L7.82543 0.694037L7.82973 0.668728Z" fill="#089156"/>
<path d="M7.85824 0.688881C7.95809 0.818256 8.03223 0.964506 8.11379 1.10513C9.41644 3.35935 10.7182 5.61357 12.018 7.86919C11.4161 8.91732 10.8095 9.9631 10.2053 11.0103C10.1242 10.5087 9.97277 10.0222 9.87621 9.52341C9.72668 8.98857 9.64371 8.43779 9.48902 7.90388C9.3109 7.04138 9.09387 6.18638 8.89934 5.32716C8.60262 4.07419 8.31762 2.81841 8.03543 1.56169C7.9698 1.27247 7.88262 0.986068 7.85824 0.688881Z" fill="#089156"/>
<path d="M6.03199 3.79341C6.0484 3.76482 6.08168 3.70763 6.09855 3.67904L6.10184 3.73388C6.08449 3.74888 6.04934 3.77888 6.03199 3.79341Z" fill="#089156"/>
<path d="M19.7557 6.81122C20.5708 8.22357 21.3909 9.63358 22.1995 11.0501C22.2033 11.0562 22.2108 11.0694 22.2145 11.0754C22.2333 11.1064 22.2708 11.1678 22.289 11.1983C22.2928 11.2044 22.3003 11.217 22.304 11.2231L22.3415 11.2873C22.3439 11.2915 22.3486 11.3004 22.3514 11.3047L22.3983 11.3862C22.4029 11.3942 22.4118 11.4106 22.4165 11.4186C22.4208 11.4256 22.4292 11.4401 22.4334 11.4476L22.4794 11.5273C22.4812 11.5306 22.485 11.5372 22.4869 11.5404L22.5328 11.6192C22.5347 11.6225 22.5384 11.6286 22.5403 11.6319L22.5862 11.7115C22.5909 11.7195 22.5998 11.735 22.6045 11.7429C22.6087 11.7509 22.6176 11.7664 22.6219 11.7739L22.6692 11.8573C22.6758 11.8737 22.6889 11.9056 22.6954 11.9215L22.7086 11.9473L22.7147 11.9609L22.725 11.9745L22.7526 12.0162C22.7625 12.0317 22.7817 12.0626 22.7915 12.0781C22.7972 12.0875 22.8094 12.1062 22.815 12.1156L22.8459 12.1648C22.8553 12.1859 22.874 12.2286 22.8834 12.2497L22.8975 12.275L22.9026 12.2848L22.9069 12.2909C22.9275 12.3214 22.9683 12.3828 22.9889 12.4133C22.994 12.4217 23.0044 12.4386 23.01 12.447L23.0381 12.4939C23.0423 12.5014 23.0508 12.5159 23.055 12.5229L23.1023 12.6059C23.1065 12.6134 23.115 12.6284 23.1192 12.6359C23.1234 12.6434 23.1319 12.6579 23.1361 12.6654L23.1829 12.7456C23.1848 12.7494 23.189 12.7564 23.1914 12.7597L23.234 12.8347C23.2369 12.8394 23.2425 12.8492 23.2453 12.8539L23.2884 12.9294C23.2936 12.9378 23.3034 12.9551 23.3086 12.9636C23.3128 12.9711 23.3217 12.9861 23.3259 12.9936C23.3606 13.0512 23.3939 13.1098 23.4248 13.1698C23.4295 13.1797 23.4389 13.1994 23.4431 13.2092L23.4647 13.2579C23.4703 13.2673 23.4815 13.2865 23.4867 13.2959C23.4937 13.3053 23.5073 13.3231 23.5144 13.332L23.5467 13.3779C23.5523 13.3869 23.5636 13.4047 23.5697 13.414L23.617 13.4961C23.6212 13.5036 23.6297 13.5186 23.6339 13.5261C23.6381 13.5336 23.6465 13.5481 23.6512 13.5556L23.6981 13.6362C23.7 13.64 23.7037 13.6465 23.7056 13.6498L23.7501 13.7276C23.752 13.7309 23.7558 13.737 23.7576 13.7403L23.8031 13.8195C23.8078 13.8275 23.8172 13.8434 23.8219 13.8519C23.8265 13.8598 23.8359 13.8758 23.8401 13.8837L23.887 13.9643C23.8889 13.9676 23.8922 13.9742 23.894 13.9775L23.9437 14.0703L23.9433 14.1125C22.7704 13.7754 21.6164 13.3756 20.4403 13.0508C19.3729 12.7062 18.296 12.3926 17.2286 12.05C17.3772 11.9787 17.5361 11.9333 17.6847 11.8629C17.7039 11.7997 17.7241 11.7369 17.7438 11.6745C17.9289 11.5583 18.138 11.4884 18.3203 11.3679C18.3274 11.2137 18.3269 11.06 18.3264 10.9062C18.5308 10.7417 18.7474 10.5893 18.9157 10.3854C18.9325 10.1848 18.7811 9.94998 18.9372 9.78076C19.4172 9.17513 19.7083 8.42466 19.7603 7.65357C19.8461 7.37138 19.6919 7.09201 19.7557 6.81122Z" fill="#F9C941"/>
<path d="M23.9433 14.1125L23.9676 14.1134L23.9812 14.149L23.9536 14.1509L23.9433 14.1125Z" fill="#F9C941"/>
<path d="M13.6085 10.5992L13.6118 10.6039L13.6146 10.61C13.6132 10.6072 13.6099 10.602 13.6085 10.5992Z" fill="#E3B73A"/>
<path d="M13.8255 10.9986C14.366 11.1973 14.9252 11.3389 15.4713 11.5193C16.0582 11.6933 16.6404 11.8812 17.2286 12.05C18.296 12.3926 19.3729 12.7062 20.4403 13.0508C20.4244 13.279 20.469 13.513 20.4122 13.7371C20.3686 13.955 20.108 13.9892 20.0007 14.1632C18.5583 14.1636 17.1165 14.1678 15.6746 14.1617L15.6437 14.1594C15.0479 13.1 14.4288 12.0537 13.8255 10.9986Z" fill="#E3B73A"/>
<path d="M22.7086 11.9473C22.7128 11.9544 22.7208 11.9679 22.725 11.9745L22.7147 11.9609L22.7086 11.9473Z" fill="#E8B835"/>
<path d="M22.8975 12.275C22.8998 12.2792 22.9045 12.2872 22.9069 12.2909L22.9026 12.2848L22.8975 12.275Z" fill="#E8B835"/>
<path d="M20.4403 13.0508C21.6164 13.3756 22.7704 13.7754 23.9433 14.1125L23.9536 14.1509C22.6369 14.1809 21.3179 14.1561 20.0007 14.1632C20.108 13.9892 20.3686 13.955 20.4122 13.7371C20.469 13.513 20.4244 13.279 20.4403 13.0508Z" fill="#E8B835"/>
<path d="M23.9437 14.0703C23.9498 14.0811 23.9615 14.1026 23.9676 14.1134L23.9433 14.1125L23.9437 14.0703Z" fill="#E8B835"/>
<path d="M6.94183 16.6283C7.42512 15.8042 7.88449 14.9647 8.38371 14.1504C10.8039 14.1593 13.224 14.1369 15.6437 14.1594L15.6746 14.1617C14.4507 14.2011 13.2241 14.1514 12.0001 14.1823C11.7667 14.3328 11.6111 14.5765 11.3875 14.7406C11.1798 14.892 11.027 15.1029 10.8287 15.2647C10.5508 15.4695 10.344 15.7536 10.0619 15.9542C9.73561 16.2997 9.3592 16.5908 9.03014 16.9344C8.78358 17.1237 8.57733 17.3576 8.34764 17.5662C8.09498 17.7495 7.90139 17.9979 7.66514 18.2005C7.65905 18.2056 7.64733 18.2159 7.64123 18.2215C7.62858 18.2314 7.60373 18.252 7.59108 18.2619C7.58498 18.267 7.57373 18.2764 7.56764 18.2815C7.38155 18.4255 7.23905 18.6153 7.05623 18.763C7.05014 18.7681 7.03842 18.778 7.0328 18.7826C7.0267 18.7878 7.01498 18.7976 7.00889 18.8023C6.74217 19.0212 6.52842 19.2983 6.24858 19.5022C5.96686 19.7815 5.64904 20.0215 5.38139 20.3159C4.98576 20.6412 4.64355 21.0251 4.23574 21.3368C4.33699 21.1161 4.47105 20.9136 4.58871 20.7022C5.3734 19.3442 6.15715 17.9862 6.94183 16.6283Z" fill="#296AD9"/>
<path d="M4.21512 21.3668C4.22027 21.3594 4.23059 21.3443 4.23574 21.3368L4.2343 21.3673L4.21512 21.3668Z" fill="#296AD9"/>
<path d="M15.6746 14.1617C17.1165 14.1678 18.5583 14.1636 20.0007 14.1632C21.3179 14.1561 22.6369 14.1809 23.9536 14.1509L23.9812 14.149L23.9999 14.1543V14.158C22.6096 16.5613 21.2235 18.9674 19.8332 21.3711C14.6334 21.3697 9.43367 21.3758 4.2343 21.3673L4.23574 21.3368C4.64355 21.0251 4.98576 20.6412 5.38139 20.3159C5.64904 20.0215 5.96686 19.7815 6.24858 19.5022C6.52842 19.2983 6.74217 19.0212 7.00889 18.8023C7.01498 18.7976 7.0267 18.7878 7.0328 18.7826C7.03842 18.778 7.05014 18.7681 7.05623 18.763C7.23905 18.6153 7.38155 18.4255 7.56764 18.2815C7.57373 18.2764 7.58498 18.267 7.59108 18.2619C7.60373 18.252 7.62858 18.2314 7.64123 18.2215C7.64733 18.2159 7.65905 18.2056 7.66514 18.2005C7.90139 17.9979 8.09498 17.7495 8.34764 17.5662C8.57733 17.3576 8.78358 17.1237 9.03014 16.9344C9.3592 16.5908 9.73561 16.2997 10.0619 15.9542C10.344 15.7536 10.5508 15.4695 10.8287 15.2647C11.027 15.1029 11.1798 14.892 11.3875 14.7406C11.6111 14.5765 11.7667 14.3328 12.0001 14.1823C13.2241 14.1514 14.4507 14.2011 15.6746 14.1617Z" fill="#2A71E9"/>
</svg>
